<svg width="52" height="52" viewBox="0 0 52 52" fill="none" xmlns="http://www.w3.org/2000/svg">
<g clip-path="url(#clip0_3601_1406)">
<path d="M43.6027 6.08613C42.0263 6.47039 40.4302 7.75123 39.7208 9.19957C38.7158 11.2489 38.9128 13.4953 40.2627 15.387L40.5681 15.8009L40.2627 16.126C39.9572 16.4511 36.3709 20.4513 36.3315 20.5203C36.3117 20.54 36.1837 20.4612 36.026 20.3528C35.5334 20.0079 34.7649 19.6631 34.1146 19.4956C33.2574 19.269 31.6613 19.338 30.8041 19.6434C28.7351 20.3725 27.2769 22.1755 26.8828 24.5008L26.8236 24.8653L24.8334 24.8456L22.8432 24.816L22.6363 24.2249C22.3013 23.2495 21.8973 22.5893 21.1682 21.8602C20.784 21.476 20.2125 21.0326 19.8874 20.8553C17.5621 19.6335 14.833 19.9882 12.9708 21.7519C12.2023 22.481 11.7491 23.1707 11.3944 24.1953C11.0397 25.1904 11.02 26.8654 11.355 27.8211C11.6407 28.629 12.0348 29.3384 12.5373 29.9099L12.9314 30.3532L11.2564 32.6588C10.1431 34.1761 9.51252 34.9544 9.414 34.9446C9.31547 34.9347 8.94107 34.8066 8.55682 34.6589C7.92625 34.4027 7.7489 34.383 6.58629 34.3731C5.49264 34.3731 5.20691 34.4027 4.64531 34.5997C3.30535 35.0628 2.0048 36.1663 1.36438 37.388C0.103239 39.7921 0.497345 42.4917 2.38905 44.3834C3.67975 45.6741 5.05912 46.2062 6.88187 46.1175C8.37947 46.0387 9.51252 45.5756 10.6062 44.5706C11.3353 43.9007 11.8378 43.1321 12.1826 42.1075C12.4289 41.3981 12.4782 41.1123 12.4782 40.2847C12.488 38.797 12.0644 37.6048 11.1185 36.452C10.8722 36.1466 10.6751 35.8806 10.6751 35.8412C10.6751 35.6737 14.0645 31.1612 14.163 31.2104C15.7098 31.9001 16.8725 32.0775 18.1139 31.8311C20.5574 31.3287 22.3801 29.4961 22.8629 27.0526L23.0205 26.2447H25.0108H27.001L27.1094 26.7176C27.4444 28.1758 28.7548 29.8212 30.144 30.5109C31.3953 31.1415 32.7549 31.3287 34.0456 31.0626C36.2625 30.5996 38.1443 28.698 38.6173 26.4417C38.9128 25.0427 38.5976 23.3579 37.8192 22.0967C37.5926 21.7223 37.4941 21.4661 37.5433 21.3873C37.5827 21.3085 38.5483 20.2247 39.6715 18.9734L41.7307 16.6975L42.115 16.9438C43.179 17.6137 45.0215 17.9192 46.3319 17.6335C48.598 17.1507 50.4503 15.3082 50.9232 13.0815C51.1203 12.1554 51.1104 11.5347 50.874 10.6381C50.3025 8.41136 48.5684 6.64774 46.391 6.09599C45.6915 5.91864 44.3318 5.91864 43.6027 6.08613ZM46.5092 7.53447C47.5832 7.89902 48.5882 8.78576 49.1103 9.82029C49.4158 10.4016 49.6227 11.5248 49.5439 12.1554C49.4158 13.318 48.9626 14.254 48.1546 15.0619C46.1743 17.0423 42.8145 16.6876 41.2381 14.3328C40.706 13.5347 40.4991 12.8056 40.509 11.7613C40.5287 8.63797 43.5436 6.51965 46.5092 7.53447ZM34.1245 20.8651C34.8043 21.0819 35.4644 21.4858 36.0162 22.0474C37.7404 23.8012 37.701 26.6289 35.9078 28.4221C35.0112 29.3089 34.0259 29.7128 32.7451 29.7128C31.5431 29.7128 30.5972 29.3581 29.7105 28.5601C27.7793 26.8161 27.7104 23.8012 29.5725 21.9686C30.2425 21.3085 31.08 20.875 32.0554 20.6878C32.4495 20.6188 33.6417 20.7173 34.1245 20.8651ZM17.7198 21.5154C19.8775 21.8701 21.5131 23.7914 21.5131 25.9984C21.5131 27.2497 21.0795 28.2645 20.114 29.23C18.4193 30.9345 15.6507 30.9641 13.8773 29.2892C11.5619 27.1019 12.1333 23.2987 14.9807 21.9391C15.9759 21.4563 16.705 21.3479 17.7198 21.5154ZM7.69964 35.7525C8.82284 36.0875 10.0052 37.0432 10.4978 38.0088C11.0298 39.0433 11.1481 40.5015 10.7835 41.536C9.65046 44.7972 5.57146 45.7135 3.19697 43.2602C0.861893 40.8463 1.92598 36.7476 5.1478 35.7624C5.75866 35.5653 7.06907 35.5653 7.69964 35.7525Z" fill="white"/>
<path d="M44.4117 8.70648C43.7613 8.84443 43.0518 9.24845 42.6183 9.751C41.2091 11.3474 41.7314 13.8404 43.6726 14.7864C44.4412 15.1707 45.5449 15.1707 46.3431 14.8061C46.9836 14.5006 47.6044 13.8995 47.9296 13.259C48.2646 12.589 48.304 11.5149 48.0281 10.766C47.4861 9.33713 45.8602 8.41085 44.4117 8.70648ZM45.7814 10.1452C46.2248 10.3718 46.4318 10.5787 46.6485 10.9926C47.1117 11.8992 46.6485 13.1802 45.7223 13.5251C45.0719 13.7714 44.0964 13.5645 43.6726 13.0817C43.0518 12.3722 43.042 11.239 43.6628 10.5393C44.1062 10.0368 45.1803 9.83969 45.7814 10.1452Z" fill="white"/>
<path d="M31.7896 22.1846C30.3608 22.697 29.5626 23.8007 29.5527 25.2591C29.5527 25.8404 29.6119 26.1164 29.8089 26.5401C30.7549 28.6094 33.4254 29.112 35.0119 27.5255C36.2633 26.274 36.2633 24.2441 35.0119 22.9926C34.1644 22.1452 32.8341 21.8102 31.7896 22.1846ZM33.6914 23.6331C34.7162 24.2342 34.8838 25.5251 34.0659 26.4415C33.0213 27.5945 31.1491 26.9638 30.9126 25.3872C30.8239 24.7861 31.2082 24.0273 31.7797 23.6529C32.3414 23.2883 33.0903 23.2784 33.6914 23.6331Z" fill="white"/>
<path d="M16.0949 22.8838C15.5726 23.0513 15.0306 23.3863 14.6463 23.81C14.1241 24.3717 13.9762 24.6772 13.8284 25.4163C13.4441 27.3476 14.9912 29.2002 16.9817 29.2002C19.3664 29.2002 20.9135 26.6776 19.8295 24.559C19.5142 23.9283 18.7456 23.2385 18.1149 23.002C17.5533 22.7951 16.5876 22.736 16.0949 22.8838ZM18.0065 24.4801C18.4204 24.756 18.854 25.5444 18.854 25.9878C18.8441 26.3918 18.5485 27.0225 18.2036 27.3476C17.2773 28.2049 15.8485 27.8896 15.2967 26.6874C15.0602 26.1849 15.07 25.8104 15.2967 25.298C15.6613 24.5097 16.2328 24.1549 17.1 24.2042C17.4843 24.2239 17.7602 24.3027 18.0065 24.4801Z" fill="white"/>
<path d="M5.96584 37.0028C4.91146 37.1605 3.97533 37.8798 3.5319 38.8652C2.83226 40.432 3.5319 42.324 5.10854 43.0926C5.82788 43.4473 7.04978 43.4473 7.81839 43.0827C8.50817 42.7575 9.06 42.2057 9.38518 41.5159C9.74978 40.7572 9.74978 39.5254 9.40489 38.8061C8.76438 37.5152 7.39467 36.7959 5.96584 37.0028ZM7.49321 38.6189C8.01547 39.0426 8.22241 39.3579 8.28153 39.821C8.36036 40.4221 8.24212 40.8853 7.89722 41.2794C7.48336 41.7524 7.07934 41.9397 6.47825 41.9397C5.07898 41.9397 4.22168 40.5108 4.86219 39.2495C5.20708 38.5696 5.80817 38.2444 6.6162 38.2937C7.01036 38.3232 7.2173 38.4021 7.49321 38.6189Z" fill="white"/>
</g>
<defs>
<clipPath id="clip0_3601_1406">
<rect width="50.4456" height="50.4456" fill="white" transform="translate(0.625 0.825195)"/>
</clipPath>
</defs>
</svg>
