<svg width="57" height="57" viewBox="0 0 57 57" fill="none" xmlns="http://www.w3.org/2000/svg">
<g clip-path="url(#clip0_3601_1394)">
<path d="M31.8482 0.281223C31.6074 0.533012 31.6074 0.565853 31.6074 5.18566V9.84925L31.8592 10.0682C31.9906 10.1996 32.3299 10.32 32.6474 10.3638C33.2714 10.4404 33.9501 10.8674 34.191 11.3271C34.4318 11.7869 34.4975 12.6299 34.3443 13.1006C33.8626 14.5676 32.0015 15.0602 30.852 14.0093C30.5017 13.6808 30.1842 12.9802 30.1842 12.4985C30.1842 11.7322 29.3741 11.3709 28.8706 11.9074C28.6516 12.1373 28.6297 12.2467 28.6845 12.7941C28.772 13.6589 29.2099 14.48 29.9215 15.1259L30.5236 15.6733L29.4508 16.4943C28.8596 16.9432 26.2651 18.9137 23.6705 20.8733L18.9632 24.4421H17.967C17.0693 24.4421 16.9488 24.464 16.7408 24.6939C16.5219 24.9238 16.5 25.0661 16.5 26.1171V27.2885H15.6242C14.8251 27.2885 14.7156 27.3213 14.4747 27.5621L14.201 27.8249V33.1344V38.4548L13.7413 38.7942C13.0844 39.2759 11.3985 40.0641 10.6979 40.2173C10.3585 40.294 9.69072 40.3159 9.12146 40.283C7.80777 40.2173 7.68735 40.3268 7.57788 41.6733C7.43556 43.403 7.68735 46.3588 8.13619 48.1761C8.71641 50.5407 9.66883 52.3909 10.9825 53.7045C12.2634 54.9854 14.0368 56.0144 14.9674 56.0254C15.8979 56.0254 17.967 54.8431 19.0179 53.7155C20.1564 52.5003 21.2183 50.5188 21.6781 48.7892L21.9409 47.8148L35.9316 47.782L49.9333 47.7601L50.1851 47.5193L50.4369 47.2894V37.5571V27.8249L50.1632 27.5621C49.9224 27.3213 49.8129 27.2885 49.0138 27.2885H48.138V26.1061C48.138 25.0114 48.1161 24.9019 47.8862 24.683C47.6672 24.475 47.503 24.4421 46.7148 24.4421H45.8062L39.9603 20.0522L34.1144 15.6733L34.5304 15.3667C35.5704 14.6004 35.9207 13.8669 35.9316 12.4547C35.9316 11.6118 35.8878 11.3819 35.647 10.8674C35.2748 10.0791 34.6727 9.48799 33.8297 9.09388L33.14 8.76546V4.63829V0.500168L32.8883 0.270275C32.5598 -0.0362549 32.1438 -0.0362549 31.8482 0.281223ZM37.5956 20.2383C40.4748 22.384 42.8942 24.2013 42.9818 24.2889C43.1241 24.4202 43.1131 24.475 42.9051 24.6939C42.6862 24.9238 42.6643 25.0661 42.6643 26.1171V27.2885H32.319H21.9737V26.1061C21.9737 25.0442 21.9518 24.891 21.7548 24.7158C21.6343 24.6063 21.5468 24.475 21.5577 24.4312C21.5796 24.3655 32.2095 16.4067 32.3409 16.352C32.3518 16.3411 34.7165 18.0926 37.5956 20.2383ZM20.4411 26.6316V27.2885H19.2369H18.0326V26.6316V25.9748H19.2369H20.4411V26.6316ZM46.6053 26.6316V27.2885H45.4011H44.1969V26.6316V25.9748H45.4011H46.6053V26.6316ZM48.9043 37.5243V46.2275H35.5704H22.2364L22.3131 45.5925C22.3569 45.2531 22.3678 42.0127 22.335 38.4001C22.2802 31.9739 22.2693 31.8207 22.0503 31.5798C21.8314 31.3499 21.7657 31.339 19.7952 31.339C17.8684 31.339 17.759 31.3499 17.5181 31.5798L17.2663 31.8097V35.5756C17.2663 37.6447 17.2335 39.3306 17.1897 39.3306C17.0364 39.3306 16.3467 38.8818 16.0402 38.5862L15.7337 38.3015V33.5613V28.8211H32.319H48.9043V37.5243ZM20.7695 36.6047V40.3487L19.9813 40.283C18.6676 40.1845 18.799 40.6005 18.799 36.4733V32.8716H19.7842H20.7695V36.6047ZM15.6242 40.2064C15.9526 40.4582 16.5438 40.8085 16.9379 40.9946C17.8246 41.4106 19.5434 41.8485 20.3206 41.8485H20.9009L20.8571 43.9504C20.8242 45.1108 20.7366 46.3041 20.671 46.6106C20.5943 46.9062 20.4411 47.5412 20.3206 48.0009C19.5762 51.0553 17.956 53.19 15.5585 54.2957L14.9455 54.5694L14.1244 54.1534C13.161 53.6717 11.8693 52.5113 11.2234 51.5589C9.87683 49.5774 9.18714 46.9062 9.13241 43.4906L9.11051 41.9032L9.87683 41.8376C11.4533 41.6952 13.1939 41.0603 14.3215 40.2064C14.6499 39.9656 14.9345 39.7685 14.9674 39.7685C15.0112 39.7685 15.3067 39.9656 15.6242 40.2064Z" fill="white"/>
<path d="M23.7467 31.5911L23.5059 31.8429V37.5684V43.2829L23.7795 43.5457C24.0423 43.8193 24.0642 43.8193 26.0238 43.8193C27.9833 43.8193 28.0052 43.8193 28.268 43.5457L28.5417 43.2829V37.5465V31.81L28.2899 31.5801C28.049 31.3502 27.9396 31.3393 26.0128 31.3393C24.0313 31.3393 23.9766 31.3502 23.7467 31.5911ZM27.009 37.5793V42.2867H26.0238H25.0385V37.5793V32.8719H26.0238H27.009V37.5793Z" fill="white"/>
<path d="M30.0198 31.613L29.7461 31.8757V37.5793V43.2829L30.0198 43.5457C30.2825 43.8193 30.3044 43.8193 32.3187 43.8193C34.3331 43.8193 34.3549 43.8193 34.6177 43.5457L34.8914 43.2829V37.5793V31.8757L34.6177 31.613C34.3549 31.3393 34.3331 31.3393 32.3187 31.3393C30.3044 31.3393 30.2825 31.3393 30.0198 31.613ZM33.3587 37.5793V42.2867H32.3187H31.2787V37.5793V32.8719H32.3187H33.3587V37.5793Z" fill="white"/>
<path d="M36.3365 31.5911L36.0957 31.8429V37.5684V43.2829L36.3694 43.5457C36.6321 43.8193 36.654 43.8193 38.6136 43.8193C40.5732 43.8193 40.5951 43.8193 40.8578 43.5457L41.1315 43.2829V37.5465V31.81L40.8797 31.5801C40.6389 31.3502 40.5294 31.3393 38.6027 31.3393C36.6212 31.3393 36.5664 31.3502 36.3365 31.5911ZM39.5989 37.5793V42.2867H38.6136H37.6283V37.5793V32.8719H38.6136H39.5989V37.5793Z" fill="white"/>
<path d="M42.6096 31.613L42.3359 31.8757V37.5793V43.2829L42.6096 43.5457C42.8724 43.8193 42.8943 43.8193 44.8538 43.8193C46.8134 43.8193 46.8353 43.8193 47.0981 43.5457L47.3717 43.2829V37.5465V31.81L47.1199 31.5801C46.8791 31.3502 46.7696 31.3393 44.8648 31.3393C42.8943 31.3393 42.8724 31.3393 42.6096 31.613ZM45.8391 37.5793V42.2867H44.8538H43.8686V37.5793V32.8719H44.8538H45.8391V37.5793Z" fill="white"/>
<path d="M15.6134 46.0855L13.2269 48.4501L12.6138 47.8918C11.9132 47.2459 11.541 47.1693 11.1578 47.5743C10.7199 48.0451 10.8294 48.2968 11.9022 49.3368C12.7233 50.1251 12.9422 50.2783 13.2378 50.2783C13.5553 50.2783 13.8728 49.9937 16.3031 47.5634C18.6458 45.2206 19.018 44.8046 19.018 44.52C19.018 44.3339 18.9195 44.0821 18.7991 43.9507C18.3174 43.4362 18.1532 43.5457 15.6134 46.0855Z" fill="white"/>
</g>
<defs>
<clipPath id="clip0_3601_1394">
<rect width="56.0507" height="56.0507" fill="white" transform="translate(0.955078 0.0292969)"/>
</clipPath>
</defs>
</svg>
