<svg width="51" height="51" viewBox="0 0 51 51" fill="none" xmlns="http://www.w3.org/2000/svg">
<g clip-path="url(#clip0_3601_1402)">
<path d="M10.4075 6.03966C5.53048 8.85752 1.46133 11.2517 1.36281 11.3699C1.20517 11.567 1.19531 12.2173 1.19531 21.9419C1.20517 29.9225 1.22487 32.3364 1.3234 32.4546C1.52045 32.7207 19.2158 42.8886 19.4818 42.8886C19.6099 42.8886 21.2455 42.0019 23.1273 40.9181C24.9993 39.8343 26.5462 38.9476 26.556 38.9476C26.5659 38.9476 26.7827 39.1446 27.029 39.3811C27.7482 40.0609 28.4675 40.5732 29.3444 41.0166C31.8174 42.2482 34.9012 42.2383 37.325 40.9772L38.192 40.524L38.8029 41.1348C39.3448 41.6669 39.4236 41.795 39.4236 42.1201C39.4236 42.3172 39.4729 42.6029 39.5221 42.7605C39.6798 43.1645 45.6899 49.1746 46.1727 49.4012C47.0594 49.815 47.5422 49.618 48.7541 48.3963C49.9265 47.2041 50.0842 46.7607 49.6802 45.8937C49.4536 45.4109 43.4435 39.4008 43.0395 39.2431C42.8819 39.1939 42.5962 39.1446 42.3991 39.1446C42.074 39.1446 41.9459 39.0658 41.4139 38.5239L40.803 37.913L41.2562 37.046C42.4779 34.6814 42.5272 31.5679 41.3744 29.223C40.6453 27.7451 39.4729 26.3756 38.3103 25.6465L37.7585 25.3016L37.7487 18.4343V11.567L37.5319 11.3207C37.4038 11.1926 35.1377 9.83294 32.4775 8.30577C27.6595 5.52732 21.8071 2.15771 20.408 1.33994C20.004 1.11333 19.5804 0.916275 19.472 0.916275C19.3636 0.916275 15.2846 3.2218 10.4075 6.03966ZM27.827 7.22198C32.0932 9.68515 35.5811 11.7246 35.5811 11.7641C35.5811 11.7936 34.4874 12.4537 33.1573 13.2223L30.7237 14.6213L27.9059 13.0055C26.359 12.1089 23.1372 10.2566 20.7528 8.87723C18.3685 7.49785 16.0039 6.13819 15.5112 5.85246C15.0087 5.55688 14.5949 5.30071 14.5949 5.2613C14.6048 5.23174 15.6984 4.57161 17.0384 3.8031L19.472 2.40403L19.7676 2.58138C19.9351 2.67005 23.551 4.75881 27.827 7.22198ZM21.1371 10.6901C25.4821 13.1828 29.0882 15.2815 29.1572 15.3504C29.2557 15.4391 28.9207 15.6756 27.5512 16.4638L25.827 17.4589L24.418 16.6411C23.6495 16.1978 20.073 14.1287 16.4669 12.0596C12.8609 9.98072 9.86565 8.22695 9.79668 8.16784C9.70801 8.08901 10.0824 7.82299 11.3238 7.10375C12.2303 6.58156 13.0284 6.14804 13.1072 6.13819C13.186 6.13819 16.8019 8.18754 21.1371 10.6901ZM16.3487 13.5769C20.743 16.1189 24.3491 18.2176 24.3491 18.257C24.3491 18.3358 19.5902 21.065 19.4621 21.0551C19.403 21.0453 17.6295 20.0501 15.5211 18.8284C13.4126 17.6165 9.81639 15.5376 7.53057 14.2174C5.2349 12.8971 3.3629 11.7936 3.3629 11.7641C3.3629 11.6852 8.2104 8.89693 8.27937 8.93634C8.30893 8.94619 11.9446 11.0448 16.3487 13.5769ZM18.6739 22.2867C18.8119 22.4049 18.8316 23.3114 18.8316 31.7157C18.8316 36.8292 18.8119 41.0166 18.7922 41.0166C18.7725 41.0166 15.127 38.918 10.6933 36.3563L2.62395 31.7058L2.59439 22.3261L2.57468 12.9562L10.5455 17.5574C14.9299 20.0896 18.5853 22.2177 18.6739 22.2867ZM36.3693 18.8383V24.6415L35.788 24.4543C32.7829 23.5281 29.3049 24.4247 26.9994 26.7204C25.4723 28.2574 24.5855 30.1885 24.3885 32.4546C24.2702 33.8734 24.7333 35.9819 25.4526 37.2627C25.689 37.6864 25.7186 37.8145 25.6102 37.8736C25.5412 37.9229 24.3096 38.6323 22.8712 39.4697L20.2602 40.9772L20.2306 31.6664L20.2109 22.3458L20.4178 22.198C20.5361 22.1192 21.6494 21.4689 22.8909 20.7497L25.1373 19.4491V22.2079V24.9666L25.3836 25.2031C25.5117 25.341 25.6989 25.4494 25.7974 25.4494C25.8959 25.4494 27.1472 24.7696 28.5857 23.9419C30.3789 22.9173 31.2262 22.3655 31.3149 22.198C31.4036 22.0207 31.443 21.1536 31.443 18.8777V15.8135L33.8372 14.4243C35.1476 13.6656 36.2511 13.035 36.3003 13.035C36.3397 13.035 36.3693 15.646 36.3693 18.8383ZM30.0439 19.1043L30.0143 21.528L28.3394 22.5035C27.4231 23.0355 26.6349 23.4789 26.5856 23.4789C26.5462 23.4789 26.5265 22.3852 26.5363 21.0551L26.5659 18.6314L28.2409 17.6559C29.167 17.1239 29.9454 16.6805 29.9946 16.6805C30.034 16.6805 30.0537 17.7742 30.0439 19.1043ZM35.2757 25.745C37.394 26.3361 39.1083 27.7549 40.064 29.7353C40.6256 30.8782 40.8227 31.7354 40.8227 33.036C40.8326 34.3168 40.6355 35.1543 40.064 36.3366C39.3054 37.8933 38.1723 39.0264 36.6156 39.785C35.4333 40.3565 34.5958 40.5535 33.315 40.5437C32.0144 40.5437 31.1572 40.3466 30.0143 39.785C25.4427 37.5583 24.3293 31.5778 27.8073 27.8633C28.8911 26.7105 30.6153 25.7942 32.1425 25.5578C33.0095 25.4198 34.4086 25.5085 35.2757 25.745ZM40.4089 39.4895L40.8424 39.9328L40.5271 40.2481L40.2118 40.5732L39.7488 40.1102L39.2857 39.6471L39.5714 39.3417C39.729 39.184 39.8768 39.0461 39.9163 39.0461C39.9458 39.0461 40.1724 39.2431 40.4089 39.4895ZM45.5027 43.4995C47.1481 45.1449 48.4881 46.544 48.4881 46.6129C48.4881 46.7903 47.2368 48.0908 46.9806 48.1696C46.823 48.2189 46.2318 47.677 43.7982 45.2434C42.1528 43.598 40.803 42.1792 40.803 42.1004C40.803 41.9132 42.1824 40.524 42.3794 40.524C42.4582 40.524 43.8672 41.8639 45.5027 43.4995Z" fill="white"/>
<path d="M31.6889 26.4933C29.8858 26.9367 28.132 28.3456 27.3241 29.9812C26.7428 31.1635 26.5852 31.9418 26.6344 33.3311C26.6738 34.2178 26.733 34.6218 26.9399 35.1834C28.2897 39.0259 32.6051 40.8191 36.2309 39.0555C39.8863 37.282 41.1375 32.6906 38.8911 29.3112C38.0832 28.0895 36.8812 27.1534 35.4624 26.6608C34.8614 26.4441 34.5363 26.3948 33.5116 26.3751C32.6544 26.3455 32.1027 26.3849 31.6889 26.4933ZM34.6249 27.8628C36.4969 28.3456 38.0537 29.922 38.4872 31.7645C39.2754 35.144 36.7334 38.3658 33.285 38.3559C31.8761 38.3559 30.6051 37.814 29.5607 36.7795C28.4966 35.7351 27.9941 34.5035 27.9941 32.9567C27.9941 30.6906 29.4424 28.72 31.6593 27.9712C32.5165 27.6756 33.7382 27.6264 34.6249 27.8628Z" fill="white"/>
</g>
<defs>
<clipPath id="clip0_3601_1402">
<rect width="50.4456" height="50.4456" fill="white" transform="translate(0.308594 0.0292969)"/>
</clipPath>
</defs>
</svg>
