<svg width="15" height="10" viewBox="0 0 15 10" fill="none" xmlns="http://www.w3.org/2000/svg">
<g clip-path="url(#clip0_3601_1126)">
<path d="M6.75619 6.87082L1.00831 1.12207L0.179688 1.95245L5.48219 7.25057L6.35369 8.11682C6.57273 8.3349 6.86938 8.45712 7.17848 8.45663C7.48758 8.45614 7.78384 8.33297 8.00219 8.11419L8.86144 7.2532L14.1797 1.95157L13.3511 1.12295L7.58481 6.87082C7.53044 6.92529 7.46586 6.96851 7.39477 6.998C7.32368 7.02749 7.24747 7.04266 7.1705 7.04266C7.09353 7.04266 7.01732 7.02749 6.94623 6.998C6.87514 6.96851 6.81056 6.92529 6.75619 6.87082Z" fill="#092433"/>
</g>
<defs>
<clipPath id="clip0_3601_1126">
<rect width="14" height="9" fill="white" transform="translate(0.179688 0.414062)"/>
</clipPath>
</defs>
</svg>
