<svg width="13" height="12" viewBox="0 0 13 12" fill="none" xmlns="http://www.w3.org/2000/svg">
<path d="M11.248 9.76019L10.105 10.9032C9.85231 11.1561 9.51556 11.3074 9.15868 11.3284C8.8018 11.3494 8.44962 11.2387 8.169 11.0172L7.925 10.8252C5.50754 8.91654 3.32228 6.73094 1.414 4.31319L1.22 4.07019C0.998507 3.78957 0.88776 3.43739 0.908774 3.08051C0.929789 2.72363 1.0811 2.38688 1.334 2.13419L2.479 0.990194C2.977 0.492194 3.683 1.21419 4.396 1.92419C5.105 2.62919 5.826 3.31819 5.352 3.79119L4.653 4.49019C4.51464 4.62878 4.42988 4.81191 4.41377 5.00708C4.39766 5.20224 4.45124 5.3968 4.565 5.55619C5.14903 6.37383 5.86436 7.08916 6.682 7.67319C7.012 7.90919 7.462 7.87119 7.748 7.58519L8.448 6.88619C8.88 6.45319 9.59 7.17519 10.313 7.87719C11.029 8.57419 11.762 9.24719 11.248 9.75919V9.76019Z" fill="black"/>
</svg>
