<svg width="201" height="55" viewBox="0 0 201 55" fill="none" xmlns="http://www.w3.org/2000/svg">
<g clip-path="url(#clip0_3601_1364)">
<mask id="mask0_3601_1364" style="mask-type:luminance" maskUnits="userSpaceOnUse" x="0" y="0" width="201" height="55">
<path d="M200.955 0H0.982422V54.9924H200.955V0Z" fill="white"/>
</mask>
<g mask="url(#mask0_3601_1364)">
<path d="M53.1568 54.9872L48.9327 35.1705H27.7421L26.0989 43.0139H42.3336L43.2328 46.7858H21.1502L26.8914 19.6638H33.4129L31.8086 11.7314H20.3529L11.1025 54.9872H53.1568Z" fill="black"/>
<path d="M45.6035 0.0722656L57.3307 54.9926H65.5776L55.7505 8.25732C54.4129 2.0027 47.586 0.406873 45.6035 0.0722656Z" fill="#FFDD2D"/>
<path d="M41.5222 0H10.3783L1.20303 43.2885L1.17395 43.5015C-0.103214 49.8076 5.36411 53.7995 7.01449 54.8431L17.0961 7.93234H34.9231L38.2166 23.4671H30.2821L28.6003 31.3994H48.1383L41.5222 0Z" fill="#FFDD2D"/>
<path d="M118.683 0.00259989H127.541C127.614 0.00259989 128.268 -0.0207992 129.087 0.0727977C131.326 0.32551 134.072 1.29892 135.202 6.22212L141.517 36.7371H134.751L128.263 5.59034H124.332L117.847 36.7348H111.081L118.683 0.00259989Z" fill="#FFDD2D"/>
<path d="M102.39 36.7347H109.156L101.554 0.00259989H92.6958C92.6231 0.00259989 91.9688 -0.0207992 91.1496 0.0727976C88.9103 0.32551 86.1645 1.29892 85.0352 6.22212L78.7246 36.7347H85.4909L87.8683 25.3206H100.017L102.39 36.7347ZM89.0995 19.3982L91.9736 5.59034H95.9046L98.7787 19.3982H89.0995Z" fill="#FFDD2D"/>
<path d="M167.338 17.765C168.566 16.9927 169.502 16.0497 170.122 14.957C170.85 13.6817 171.218 11.9221 171.218 9.73195C171.218 6.37415 170.232 3.87979 168.286 2.32375C166.361 0.784077 163.444 0.00488281 159.611 0.00488281H145.27V36.7371H160.041C168.062 36.7371 172.129 33.1803 172.129 26.1675C172.132 22.075 170.519 19.2507 167.338 17.765ZM152.017 15.3361V5.80789H159.292C162.707 5.80789 164.367 7.31481 164.367 10.4129C164.367 13.7239 162.777 15.3337 159.506 15.3337H152.017V15.3361ZM165.224 25.957C165.224 27.7914 164.776 29.0878 163.889 29.8132C162.985 30.5549 161.582 30.9293 159.721 30.9293H152.017V21.0362H159.611C161.236 21.0362 162.603 21.4105 163.674 22.1452C164.704 22.8542 165.224 24.1365 165.224 25.957Z" fill="#FFDD2D"/>
<path d="M182.69 30.824V21.0876H195.952V15.2822H182.69V5.86172H199.032L198.833 5.34693C197.205 1.12337 194.434 0.189737 192.927 0.00722256L175.943 0.00488281V36.7371H199.168V30.8263H182.69V30.824Z" fill="#FFDD2D"/>
<path d="M86.4989 43.4941V45.4985H81.3193V54.9925H78.8975V43.4941H86.4989Z" fill="black"/>
<path d="M105.357 54.9925V43.4941H109.877C110.746 43.4941 111.486 43.6606 112.098 43.9937C112.709 44.3232 113.175 44.7817 113.496 45.3694C113.82 45.9533 113.983 46.6269 113.983 47.3905C113.983 48.1541 113.819 48.8279 113.49 49.4117C113.162 49.9956 112.687 50.4504 112.064 50.7761C111.445 51.1017 110.695 51.2646 109.815 51.2646H106.935V49.3163H109.424C109.89 49.3163 110.274 49.2358 110.576 49.0749C110.882 48.9102 111.109 48.6838 111.259 48.3955C111.412 48.1036 111.488 47.7686 111.488 47.3905C111.488 47.0087 111.412 46.6756 111.259 46.3911C111.109 46.103 110.882 45.8803 110.576 45.723C110.27 45.5621 109.883 45.4816 109.413 45.4816H107.779V54.9925H105.357Z" fill="black"/>
<path d="M134.076 55.1496V53.1734H134.697C135.007 53.1734 135.256 53.136 135.447 53.0612C135.637 52.9825 135.788 52.8684 135.9 52.7187C136.015 52.5651 136.112 52.3743 136.191 52.146L136.33 51.7698L132.169 43.4941H134.675L137.371 49.1534L139.625 43.4941H142.097L138.148 52.7355C137.958 53.1622 137.733 53.559 137.472 53.9258C137.214 54.2926 136.884 54.5883 136.481 54.8128C136.079 55.0375 135.564 55.1496 134.938 55.1496H134.076Z" fill="black"/>
<path d="M170.194 43.4941V54.9925H167.799V45.4704H163.167V54.9925H160.774V43.4941H170.194Z" fill="black"/>
<path d="M199.231 43.4941V54.9925H196.837V45.4704H192.206V54.9925H189.812V43.4941H199.231Z" fill="black"/>
</g>
</g>
<defs>
<clipPath id="clip0_3601_1364">
<rect width="199.972" height="54.9924" fill="white" transform="translate(0.982422)"/>
</clipPath>
</defs>
</svg>
